<svg width="80" height="80" fill="none" xmlns="http://www.w3.org/2000/svg"><g clip-path="url(#clip0)"><path d="M78.704 56.732L41.048 37.904a2.344 2.344 0 00-2.096 0L1.296 56.732a2.343 2.343 0 000 4.192l37.656 18.828a2.342 2.342 0 002.096 0l37.656-18.828a2.344 2.344 0 000-4.192z" fill="#146288"/><path d="M78.704 56.732L41.048 37.904a2.34 2.34 0 00-1.105-.245v42.338c.02 0 .038.003.057.003a2.33 2.33 0 001.048-.248l37.656-18.828a2.344 2.344 0 000-4.192z" fill="#132644" fill-opacity=".1"/><path d="M78.704 37.904L41.048 19.076a2.344 2.344 0 00-2.096 0L1.296 37.904a2.344 2.344 0 000 4.192l37.656 18.828a2.342 2.342 0 002.096 0l37.656-18.828a2.343 2.343 0 000-4.192z" fill="#3896C3"/><path d="M78.704 37.904L41.048 19.076a2.34 2.34 0 00-1.105-.245V61.17c.02 0 .038.003.057.003.359 0 .718-.083 1.048-.248l37.656-18.828a2.344 2.344 0 000-4.192z" fill="#132644" fill-opacity=".1"/><path d="M78.704 19.076L41.048.248a2.344 2.344 0 00-2.096 0L1.296 19.076a2.343 2.343 0 000 4.193l37.656 18.828a2.342 2.342 0 002.096 0l37.656-18.828a2.344 2.344 0 000-4.193z" fill="#8BC3DE"/><path d="M78.704 19.076L41.048.248a2.34 2.34 0 00-1.105-.245V42.34c.02 0 .038.004.057.004.359 0 .718-.083 1.048-.248l37.656-18.828a2.343 2.343 0 000-4.192z" fill="#132644" fill-opacity=".1"/></g><defs><clipPath id="clip0"><path fill="#fff" d="M0 0h80v80H0z"/></clipPath></defs></svg>