<?xml version="1.0" standalone="no"?>
<!DOCTYPE svg PUBLIC "-//W3C//DTD SVG 20010904//EN"
 "http://www.w3.org/TR/2001/REC-SVG-20010904/DTD/svg10.dtd">
<svg version="1.0" xmlns="http://www.w3.org/2000/svg"
 width="700.000000pt" height="700.000000pt" viewBox="0 0 700.000000 700.000000"
 preserveAspectRatio="xMidYMid meet">
<metadata>
Created by potrace 1.14, written by Peter Selinger 2001-2017
</metadata>
<g transform="translate(0.000000,700.000000) scale(0.100000,-0.100000)"
fill="#000000" stroke="none">
<path d="M3397 6990 c-29 -9 -93 -40 -142 -69 -30 -18 -770 -441 -855 -489
-25 -14 -135 -77 -245 -140 -110 -63 -222 -127 -250 -142 -27 -15 -106 -61
-175 -100 -69 -40 -141 -81 -160 -92 -19 -11 -107 -61 -195 -110 -88 -50 -172
-99 -187 -109 -15 -11 -29 -19 -32 -19 -2 0 -75 -41 -162 -91 -88 -50 -181
-104 -209 -119 -27 -16 -100 -57 -161 -92 -61 -36 -117 -68 -125 -71 -8 -4
-30 -17 -49 -29 -19 -11 -60 -35 -90 -51 -124 -68 -175 -104 -197 -136 l-23
-34 2 -1821 3 -1821 23 -45 c32 -66 78 -108 178 -166 49 -28 235 -135 414
-239 179 -103 348 -200 375 -214 28 -15 154 -86 280 -158 127 -71 255 -144
285 -160 30 -17 93 -53 140 -80 106 -60 134 -73 146 -65 7 5 10 680 10 1852
l-1 1845 27 46 c22 37 46 57 113 98 47 28 87 51 89 51 3 0 39 20 80 45 42 25
79 45 82 45 3 0 17 8 32 19 15 10 68 41 117 68 100 56 419 237 758 430 122 69
242 137 267 151 25 14 140 79 255 145 116 66 230 131 255 145 445 249 1250
711 1250 718 0 4 -739 426 -1089 622 -25 14 -67 38 -93 53 -27 16 -51 29 -54
29 -3 0 -18 8 -32 18 -15 11 -52 33 -83 49 -62 34 -265 148 -289 163 -8 5 -45
25 -81 43 -69 35 -144 45 -202 27z"/>
<path d="M5050 4984 c-30 -8 -93 -37 -140 -63 -47 -27 -101 -58 -120 -69 -19
-11 -141 -80 -270 -154 -129 -74 -255 -146 -280 -160 -25 -14 -155 -88 -290
-165 -312 -177 -520 -295 -545 -309 -17 -9 -290 -163 -382 -216 -48 -26 -90
-50 -164 -91 -76 -42 -106 -72 -122 -119 -9 -25 -12 -363 -11 -1308 0 -1211 1
-1278 18 -1329 25 -72 87 -133 196 -192 47 -25 324 -180 615 -346 787 -446
793 -449 821 -457 l21 -7 -1 1313 c-1 1203 0 1317 16 1363 19 58 57 94 149
144 35 19 80 44 100 55 21 12 72 41 115 65 44 24 140 78 214 121 74 42 162 92
195 110 33 18 154 86 268 151 115 66 210 119 212 119 3 0 26 13 52 29 27 16
275 158 553 316 278 157 509 290 514 296 6 5 3 14 -10 24 -10 8 -233 137 -494
286 -261 150 -587 337 -725 417 -137 80 -271 154 -296 163 -66 25 -144 30
-209 13z"/>
<path d="M5139 2288 c-3 -47 -1 -1870 2 -1872 2 -2 110 57 239 131 129 74 244
139 255 144 11 5 34 18 50 28 26 16 180 103 315 179 25 13 50 28 55 32 6 4 35
21 65 37 30 17 71 40 90 51 19 12 46 27 60 35 14 7 99 55 190 107 91 51 179
101 195 110 17 9 56 32 88 49 31 18 57 36 57 39 0 4 -33 25 -72 47 -40 22 -97
54 -128 71 -84 47 -631 359 -745 424 -55 32 -127 73 -160 91 -33 18 -77 43
-97 56 -21 13 -40 23 -42 23 -2 0 -50 27 -106 60 -56 33 -103 60 -105 60 -2 0
-46 25 -99 55 -52 30 -97 55 -100 55 -4 0 -6 -6 -7 -12z"/>
</g>
</svg>
