<svg version="1.0" xmlns="http://www.w3.org/2000/svg" width="933.333" height="933.333" viewBox="0 0 700 700"><path d="M339.7 1c-2.9.9-9.3 4-14.2 6.9-3 1.8-77 44.1-85.5 48.9-2.5 1.4-13.5 7.7-24.5 14s-22.2 12.7-25 14.2c-2.7 1.5-10.6 6.1-17.5 10-6.9 4-14.1 8.1-16 9.2-1.9 1.1-10.7 6.1-19.5 11-8.8 5-17.2 9.9-18.7 10.9-1.5 1.1-2.9 1.9-3.2 1.9-.2 0-7.5 4.1-16.2 9.1-8.8 5-18.1 10.4-20.9 11.9-2.7 1.6-10 5.7-16.1 9.2-6.1 3.6-11.7 6.8-12.5 7.1-.8.4-3 1.7-4.9 2.9-1.9 1.1-6 3.5-9 5.1-12.4 6.8-17.5 10.4-19.7 13.6l-2.3 3.4.2 182.1.3 182.1 2.3 4.5c3.2 6.6 7.8 10.8 17.8 16.6 4.9 2.8 23.5 13.5 41.4 23.9 17.9 10.3 34.8 20 37.5 21.4 2.8 1.5 15.4 8.6 28 15.8 12.7 7.1 25.5 14.4 28.5 16 3 1.7 9.3 5.3 14 8 10.6 6 13.4 7.3 14.6 6.5.7-.5 1-68 1-185.2l-.1-184.5 2.7-4.6c2.2-3.7 4.6-5.7 11.3-9.8 4.7-2.8 8.7-5.1 8.9-5.1.3 0 3.9-2 8-4.5 4.2-2.5 7.9-4.5 8.2-4.5.3 0 1.7-.8 3.2-1.9 1.5-1 6.8-4.1 11.7-6.8 10-5.6 41.9-23.7 75.8-43 12.2-6.9 24.2-13.7 26.7-15.1 2.5-1.4 14-7.9 25.5-14.5 11.6-6.6 23-13.1 25.5-14.5 44.5-24.9 125-71.1 125-71.8 0-.4-73.9-42.6-108.9-62.2-2.5-1.4-6.7-3.8-9.3-5.3-2.7-1.6-5.1-2.9-5.4-2.9-.3 0-1.8-.8-3.2-1.8-1.5-1.1-5.2-3.3-8.3-4.9C390.7 20.9 370.4 9.5 368 8c-.8-.5-4.5-2.5-8.1-4.3C353 .2 345.5-.8 339.7 1z"/><path d="M505 201.6c-3 .8-9.3 3.7-14 6.3-4.7 2.7-10.1 5.8-12 6.9-1.9 1.1-14.1 8-27 15.4s-25.5 14.6-28 16c-2.5 1.4-15.5 8.8-29 16.5-31.2 17.7-52 29.5-54.5 30.9-1.7.9-29 16.3-38.2 21.6-4.8 2.6-9 5-16.4 9.1-7.6 4.2-10.6 7.2-12.2 11.9-.9 2.5-1.2 36.3-1.1 130.8 0 121.1.1 127.8 1.8 132.9 2.5 7.2 8.7 13.3 19.6 19.2 4.7 2.5 32.4 18 61.5 34.6 78.7 44.6 79.3 44.9 82.1 45.7l2.1.7-.1-131.3c-.1-120.3 0-131.7 1.6-136.3 1.9-5.8 5.7-9.4 14.9-14.4 3.5-1.9 8-4.4 10-5.5 2.1-1.2 7.2-4.1 11.5-6.5 4.4-2.4 14-7.8 21.4-12.1 7.4-4.2 16.2-9.2 19.5-11 3.3-1.8 15.4-8.6 26.8-15.1 11.5-6.6 21-11.9 21.2-11.9.3 0 2.6-1.3 5.2-2.9 2.7-1.6 27.5-15.8 55.3-31.6 27.8-15.7 50.9-29 51.4-29.6.6-.5.3-1.4-1-2.4-1-.8-23.3-13.7-49.4-28.6-26.1-15-58.7-33.7-72.5-41.7-13.7-8-27.1-15.4-29.6-16.3-6.6-2.5-14.4-3-20.9-1.3z"/><path d="M513.9 471.2c-.3 4.7-.1 187 .2 187.2.2.2 11-5.7 23.9-13.1 12.9-7.4 24.4-13.9 25.5-14.4 1.1-.5 3.4-1.8 5-2.8 2.6-1.6 18-10.3 31.5-17.9 2.5-1.3 5-2.8 5.5-3.2.6-.4 3.5-2.1 6.5-3.7 3-1.7 7.1-4 9-5.1 1.9-1.2 4.6-2.7 6-3.5 1.4-.7 9.9-5.5 19-10.7 9.1-5.1 17.9-10.1 19.5-11 1.7-.9 5.6-3.2 8.8-4.9 3.1-1.8 5.7-3.6 5.7-3.9 0-.4-3.3-2.5-7.2-4.7-4-2.2-9.7-5.4-12.8-7.1-8.4-4.7-63.1-35.9-74.5-42.4-5.5-3.2-12.7-7.3-16-9.1-3.3-1.8-7.7-4.3-9.7-5.6-2.1-1.3-4-2.3-4.2-2.3-.2 0-5-2.7-10.6-6s-10.3-6-10.5-6c-.2 0-4.6-2.5-9.9-5.5-5.2-3-9.7-5.5-10-5.5-.4 0-.6.6-.7 1.2z"/></svg>