<svg width="80" height="80" fill="none" xmlns="http://www.w3.org/2000/svg"><g clip-path="url(#clip0)"><path d="M39.986 16.83L20 12.155v22.71c0 .637.367 1.218.942 1.492l18.335 8.723c.449.214.97.214 1.419 0l18.36-8.723c.577-.274.944-.855.944-1.493V12.511L39.986 16.83z" fill="#146288"/><path d="M40 45.24c.238-.002.476-.054.696-.159l18.36-8.724A1.65 1.65 0 0060 34.865V12.511l-20 4.317V45.24z" fill="#3896C3"/><path fill-rule="evenodd" clip-rule="evenodd" d="M40.396 3.008l19.01 8.6a.996.996 0 01.592.853c.026.389-.166.79-.578.985l-6.145 2.902-12.849 6.07c-.278.13-.6.128-.877-.007l-18.982-9.295a1.012 1.012 0 01.04-1.836l8.604-3.754 10.363-4.522a1.008 1.008 0 01.822.004z" fill="#8BC3DE"/><path d="M19.986 48.67L0 43.995v22.71c0 .638.367 1.219.942 1.492l18.335 8.724c.449.213.97.213 1.419 0l18.36-8.724c.577-.274.944-.854.944-1.492V44.35l-20.014 4.32z" fill="#146288"/><path d="M20 77.08c.238-.001.476-.054.696-.158l18.36-8.724c.577-.274.944-.855.944-1.492V44.198l-20 4.47V77.08z" fill="#3896C3"/><path fill-rule="evenodd" clip-rule="evenodd" d="M39.42 45.286l-6.145 2.903-12.849 6.068c-.278.132-.6.13-.877-.006L.567 44.957a1.012 1.012 0 01.04-1.837l8.604-3.754 10.363-4.522a1.01 1.01 0 01.822.004l19.01 8.375c.435.197.632.628.588 1.035.044.401-.147.826-.574 1.028z" fill="#8BC3DE"/><path d="M59.986 48.67L40 44.2v22.506c0 .638.367 1.219.942 1.492l18.335 8.724c.449.213.97.213 1.419 0l18.36-8.724c.577-.274.944-.854.944-1.492V44.35l-20.014 4.32z" fill="#146288"/><path d="M60 77.08c.238-.001.476-.054.696-.158l18.36-8.724c.577-.274.944-.855.944-1.492V44.352l-20 4.316v28.413z" fill="#3896C3"/><path fill-rule="evenodd" clip-rule="evenodd" d="M79.42 45.286l-6.145 2.903-12.849 6.068c-.278.132-.6.13-.877-.006l-18.982-9.137a1.012 1.012 0 01.04-1.836l8.604-3.912 10.363-4.522a1.01 1.01 0 01.822.004l19.01 8.6a.997.997 0 01.59.84 1 1 0 01-.576.998z" fill="#8BC3DE"/></g><defs><clipPath id="clip0"><path fill="#fff" d="M0 0h80v80H0z"/></clipPath></defs></svg>