<svg width="80" height="80" fill="none" xmlns="http://www.w3.org/2000/svg"><path d="M40 39.7l-14.7-7.1v19.8L40 59.5V39.7z" fill="#146288"/><path d="M40 39.7v19.8l14.7-7.1V32.6L40 39.7z" fill="#3896C3"/><path d="M40 39.7l14.7-7.1L40 25.5l-14.7 7.1L40 39.7z" fill="#8BC3DE"/><path d="M40 14.2L25.3 7.1v19.8L40 34V14.2z" fill="#146288"/><path d="M40 14.2V34l14.7-7.1V7.1L40 14.2z" fill="#3896C3"/><path d="M40 14.2l14.7-7.1L40 0 25.3 7.1 40 14.2z" fill="#8BC3DE"/><path d="M62.9 51l-14.8-7.1v19.8l14.8 7.1V51z" fill="#146288"/><path d="M62.9 51v19.8l14.7-7.1V43.9L62.9 51z" fill="#3896C3"/><path d="M62.9 51l14.7-7.1-14.7-7.1-14.8 7.1L62.9 51z" fill="#8BC3DE"/><path d="M62.9 25.5l-14.8-7.1v19.8l14.8 7.1V25.5z" fill="#146288"/><path d="M62.9 25.5v19.8l14.7-7.1V18.4l-14.7 7.1z" fill="#3896C3"/><path d="M62.9 25.5l14.7-7.1-14.7-7.1-14.8 7.1 14.8 7.1z" fill="#8BC3DE"/><path d="M17.1 51L2.4 43.9v19.8l14.7 7.1V51z" fill="#146288"/><path d="M17.1 51v19.8l14.8-7.1V43.9L17.1 51z" fill="#3896C3"/><path d="M17.1 51l14.8-7.1-14.8-7.1-14.7 7.1L17.1 51z" fill="#8BC3DE"/><path d="M17.1 25.5L2.4 18.4v19.8l14.7 7.1V25.5z" fill="#146288"/><path d="M17.1 25.5v19.8l14.8-7.1V18.4l-14.8 7.1z" fill="#3896C3"/><path d="M17.1 25.5l14.8-7.1-14.8-7.1-14.7 7.1 14.7 7.1z" fill="#8BC3DE"/><path d="M40 60.2l-14.7-7.1v19.8L40 80V60.2z" fill="#146288"/><path d="M40 60.2V80l14.7-7.1V53.1L40 60.2z" fill="#3896C3"/><path d="M40 60.2l14.7-7.1L40 46l-14.7 7.1L40 60.2z" fill="#8BC3DE"/><path d="M40 34.7l-14.7-7.1v19.8L40 54.5V34.7z" fill="#146288"/><path d="M40 34.7v19.8l14.7-7.1V27.6L40 34.7z" fill="#3896C3"/><path d="M40 34.7l14.7-7.1L40 20.5l-14.7 7.1L40 34.7z" fill="#8BC3DE"/></svg>